<svg width="30" height="30" viewBox="0 0 30 30" fill="none" xmlns="http://www.w3.org/2000/svg">
<g clip-path="url(#clip0_6_409)">
<path d="M15 0C6.71602 0 0 6.71602 0 15C0 23.284 6.71602 30 15 30C23.284 30 30 23.284 30 15C30 6.71602 23.284 0 15 0ZM10.2029 18.4271C9.93921 18.6909 9.58154 18.839 9.20859 18.839C8.83565 18.839 8.47798 18.6909 8.21426 18.4271L5.77266 15.9855C5.50895 15.7218 5.36081 15.3642 5.36081 14.9912C5.36081 14.6183 5.50895 14.2606 5.77266 13.9969L8.20723 11.5623C8.47262 11.3069 8.82763 11.1658 9.19594 11.1693C9.56426 11.1729 9.91648 11.3208 10.1769 11.5813C10.4373 11.8418 10.5851 12.1941 10.5886 12.5624C10.592 12.9307 10.4508 13.2857 10.1953 13.551L10.1525 13.5938H15.0844C15.4573 13.5938 15.815 13.7419 16.0787 14.0056C16.3425 14.2694 16.4906 14.627 16.4906 15C16.4906 15.373 16.3425 15.7306 16.0787 15.9944C15.815 16.2581 15.4573 16.4062 15.0844 16.4062H10.1707L10.2029 16.4385C10.4666 16.7022 10.6148 17.0599 10.6148 17.4328C10.6148 17.8058 10.4666 18.1634 10.2029 18.4271ZM21.8268 21.3281C21.8268 21.7011 21.6786 22.0588 21.4149 22.3225C21.1512 22.5862 20.7935 22.7344 20.4205 22.7344H13.8234C13.6388 22.7344 13.4559 22.698 13.2853 22.6273C13.1147 22.5567 12.9597 22.4531 12.8291 22.3225C12.6985 22.1919 12.5949 22.0369 12.5242 21.8663C12.4536 21.6957 12.4172 21.5128 12.4172 21.3281C12.4172 21.1435 12.4536 20.9606 12.5242 20.79C12.5949 20.6194 12.6985 20.4643 12.8291 20.3338C12.9597 20.2032 13.1147 20.0996 13.2853 20.0289C13.4559 19.9583 13.6388 19.9219 13.8234 19.9219H19.0143V10.0781H13.8234C13.4505 10.0781 13.0928 9.92997 12.8291 9.66624C12.5653 9.40252 12.4172 9.04484 12.4172 8.67188C12.4172 8.29891 12.5653 7.94123 12.8291 7.67751C13.0928 7.41378 13.4505 7.26562 13.8234 7.26562H20.4205C20.7935 7.26562 21.1512 7.41378 21.4149 7.67751C21.6786 7.94123 21.8268 8.29891 21.8268 8.67188V21.3281Z" fill="#C5D0FF"/>
</g>
<defs>
<clipPath id="clip0_6_409">
<rect width="30" height="30" fill="white"/>
</clipPath>
</defs>
</svg>
