<svg width="12" height="11" viewBox="0 0 12 11" fill="none" xmlns="http://www.w3.org/2000/svg">
<g id="exit-icon">
<path id="Vector" d="M0.274174 0.285506C0.449954 0.117968 0.688233 0.0238633 0.93667 0.0238633C1.18511 0.0238633 1.42339 0.117968 1.59917 0.285506L5.62414 4.12653L9.64912 0.285506C9.76371 0.167741 9.90946 0.0816505 10.071 0.0363048C10.2326 -0.00904099 10.404 -0.0119628 10.5671 0.027847C10.7303 0.0676567 10.8792 0.148724 10.9981 0.262508C11.117 0.376292 11.2016 0.51858 11.2429 0.67438C11.2846 0.829902 11.2817 0.99329 11.2344 1.14737C11.1871 1.30144 11.0972 1.44051 10.9741 1.54994L6.94914 5.39097L10.9741 9.23199C11.0975 9.34135 11.1877 9.48044 11.2352 9.63461C11.2828 9.78879 11.2858 9.95234 11.2441 10.108C11.2024 10.2637 11.1174 10.4058 10.9982 10.5193C10.879 10.6328 10.7299 10.7135 10.5666 10.7529C10.4036 10.7928 10.2324 10.79 10.071 10.7448C9.90952 10.6997 9.7638 10.6139 9.64912 10.4964L5.62414 6.65541L1.59917 10.4964C1.42134 10.6544 1.18628 10.7404 0.943382 10.7364C0.700487 10.7324 0.468676 10.6387 0.296673 10.475C0.12512 10.3108 0.0269266 10.0896 0.0227307 9.85781C0.0185348 9.62601 0.108664 9.40169 0.274174 9.23199L4.29915 5.39097L0.274174 1.54994C0.0986115 1.3822 0 1.15481 0 0.917725C0 0.680642 0.0986115 0.453254 0.274174 0.285506Z" fill="white"/>
</g>
</svg>
