<svg width="30" height="30" viewBox="0 0 30 30" fill="none" xmlns="http://www.w3.org/2000/svg">
<g id="music-icon">
<path id="Vector" d="M27.6562 6.30934C27.6562 5.08122 27.1313 3.94216 26.2172 3.18278C25.3781 2.48903 24.2953 2.20309 23.2406 2.40466L12.9281 4.36403C11.1375 4.70622 9.84375 6.34684 9.84375 8.26872V19.2234C9.06094 18.6328 8.08594 18.2765 7.03125 18.2765C4.44844 18.2765 2.34375 20.3812 2.34375 22.964C2.34375 25.5468 4.44844 27.6515 7.03125 27.6515C9.61406 27.6515 11.7188 25.5468 11.7188 22.964V11.55L25.7812 8.87809V16.4109C24.9984 15.8203 24.0234 15.464 22.9688 15.464C20.3859 15.464 18.2812 17.5687 18.2812 20.1515C18.2812 22.7343 20.3859 24.839 22.9688 24.839C25.2656 24.839 27.1734 23.1797 27.5766 21C27.6281 20.8828 27.6562 20.7562 27.6562 20.6203V7.96403C27.6562 7.93122 27.6516 7.89841 27.6469 7.86091C27.6516 7.82341 27.6562 7.78591 27.6562 7.74372V6.30466V6.30934Z" fill="white"/>
</g>
</svg>
