<svg width="14" height="16" viewBox="0 0 14 16" fill="none" xmlns="http://www.w3.org/2000/svg">
<path d="M8.33749 15.752H2.46125C1.10408 15.752 0 14.6479 0 13.2908V4.95327C0 3.5961 1.10408 2.49202 2.46125 2.49202H8.33749C9.69467 2.49202 10.7987 3.5961 10.7987 4.95327V13.2908C10.7987 14.6479 9.69467 15.752 8.33749 15.752ZM2.46125 3.72264C1.78273 3.72264 1.23063 4.27474 1.23063 4.95327V13.2908C1.23063 13.9693 1.78273 14.5214 2.46125 14.5214H8.33749C9.01602 14.5214 9.56812 13.9693 9.56812 13.2908V4.95327C9.56812 4.27474 9.01602 3.72264 8.33749 3.72264H2.46125ZM13.26 11.7525V2.46125C13.26 1.10408 12.1559 0 10.7987 0H3.96877C3.62891 0 3.35346 0.275449 3.35346 0.615313C3.35346 0.955178 3.62891 1.23063 3.96877 1.23063H10.7987C11.4773 1.23063 12.0294 1.78273 12.0294 2.46125V11.7525C12.0294 12.0923 12.3048 12.3678 12.6447 12.3678C12.9846 12.3678 13.26 12.0923 13.26 11.7525Z" fill="white"/>
</svg>
