<svg width="30" height="30" viewBox="0 0 30 30" fill="none" xmlns="http://www.w3.org/2000/svg">
<g clip-path="url(#clip0_6_406)">
<path d="M29.7949 12.4512C29.7188 12 29.3262 11.6719 28.8691 11.6719H26.1562C25.9277 10.9043 25.623 10.1719 25.2422 9.46875L27.1582 7.55273C27.4805 7.23047 27.5215 6.72656 27.2578 6.35156C26.2676 4.95117 25.0547 3.73828 23.6543 2.74805C23.2793 2.49023 22.7695 2.53125 22.4473 2.85352L20.5312 4.76953C19.8281 4.38867 19.0898 4.08398 18.3281 3.85547V1.14258C18.3281 0.685547 18 0.292969 17.5488 0.216797C15.8672 -0.0703125 14.127 -0.0703125 12.4512 0.216797C12 0.292969 11.6719 0.685547 11.6719 1.14258V3.84961C10.9102 4.07812 10.1719 4.38281 9.46875 4.76367L7.55273 2.84766C7.22461 2.51953 6.7207 2.47852 6.3457 2.74219C4.94531 3.73242 3.73242 4.94531 2.74219 6.3457C2.47852 6.71484 2.51953 7.22461 2.8418 7.54688L4.75781 9.46875C4.37695 10.1719 4.07227 10.9102 3.84375 11.6719H1.13086C0.673828 11.6719 0.28125 12 0.205078 12.4512C0.0585938 13.2891 -0.0117188 14.1445 -0.0117188 15C-0.0117188 15.8496 0.0585938 16.7109 0.205078 17.543C0.28125 17.9941 0.673828 18.3223 1.13086 18.3223H3.83789C4.06641 19.084 4.37109 19.8223 4.75195 20.5254L2.83594 22.4414C2.50781 22.7695 2.4668 23.2734 2.73047 23.6484C3.7207 25.0488 4.93359 26.2617 6.33398 27.252C6.70898 27.5156 7.21875 27.4688 7.54102 27.1465L9.45703 25.2305C10.1602 25.6113 10.8984 25.916 11.6602 26.1445V28.8574C11.6602 29.3145 11.9883 29.707 12.4395 29.7832C13.2773 29.9297 14.1328 30 14.9883 30C15.8379 30 16.6992 29.9297 17.5547 29.7891C18.0059 29.7129 18.334 29.3203 18.334 28.8633V26.1504C19.1016 25.9219 19.834 25.6172 20.5371 25.2363L22.4531 27.1523C22.7813 27.4805 23.2852 27.5215 23.6602 27.2578C25.0605 26.2676 26.2734 25.0547 27.2637 23.6543C27.5215 23.2793 27.4805 22.7695 27.1582 22.4473L25.2422 20.5312C25.623 19.8281 25.9277 19.0898 26.1562 18.3281H28.8691C29.3262 18.3281 29.7188 18 29.7949 17.5488C29.9414 16.7109 30.0117 15.8496 30.0117 15C30.0117 14.1445 29.9355 13.2891 29.7949 12.4512ZM14.9883 20.9648C11.7012 20.9648 9.02344 18.2871 9.02344 15C9.02344 11.7129 11.6953 9.03516 14.9883 9.03516C18.2812 9.03516 20.9531 11.707 20.9531 15C20.9531 18.293 18.2754 20.9648 14.9883 20.9648Z" fill="#C5D0FF"/>
</g>
<defs>
<clipPath id="clip0_6_406">
<rect width="30" height="30" fill="white"/>
</clipPath>
</defs>
</svg>
