<svg width="30" height="30" viewBox="0 0 30 30" fill="none" xmlns="http://www.w3.org/2000/svg">
<path d="M15.3563 3.28125C14.5734 3.28125 13.8375 3.58594 13.2891 4.13906L7.11564 10.3125H5.16095C3.09376 10.3125 1.41095 11.9953 1.41095 14.0625V15.9375C1.41095 18.0047 3.09376 19.6875 5.16095 19.6875H7.11564L13.2891 25.8609C13.8422 26.4141 14.5781 26.7188 15.3563 26.7188C16.9688 26.7188 18.2813 25.4062 18.2813 23.7937V6.20625C18.2813 4.59375 16.9688 3.28125 15.3563 3.28125Z" fill="white"/>
<path d="M20.9438 10.0781C20.5547 10.4203 20.5172 11.0109 20.8547 11.4C21.5906 12.2391 22.0266 13.5844 22.0266 15C22.0266 16.4156 21.5859 17.7609 20.8547 18.6C20.5125 18.9891 20.5547 19.5797 20.9438 19.9219C21.1219 20.0766 21.3422 20.1563 21.5625 20.1563C21.825 20.1563 22.0828 20.0484 22.2703 19.8375C23.3109 18.6469 23.9109 16.8844 23.9109 15C23.9109 13.1156 23.3156 11.3531 22.2703 10.1625C21.9281 9.77345 21.3375 9.73126 20.9484 10.0734L20.9438 10.0781Z" fill="white"/>
<path d="M25.5094 6.84374C25.1437 6.47343 24.5531 6.46874 24.1828 6.83436C23.8125 7.19999 23.8078 7.79061 24.1734 8.16093C25.7906 9.80155 26.714 12.2953 26.714 15.0047C26.714 17.7141 25.7859 20.2078 24.1734 21.8484C23.8125 22.2187 23.8125 22.8094 24.1828 23.175C24.3656 23.3531 24.6047 23.4469 24.839 23.4469C25.0734 23.4469 25.3219 23.3531 25.5047 23.1656C27.464 21.1781 28.589 18.2062 28.589 15.0094C28.589 11.8125 27.464 8.84061 25.5047 6.85311L25.5094 6.84374Z" fill="white"/>
<path d="M24.2132 27.2132L2.99999 5.99999" stroke="white" stroke-width="3" stroke-linecap="round"/>
<path d="M26.2132 25.2132L4.99999 3.99999" stroke="#0417B4" stroke-width="3" stroke-linecap="round"/>
</svg>
